<svg xmlns="http://www.w3.org/2000/svg" style="display:none">

    <!-- Icona: check -->
    <symbol id="comorg-icon-check" viewBox="0 0 20 20">
        <path fill="currentColor" d="M7.6 14.2L3.4 10l1.4-1.4 2.8 2.8 7-7L16 5.8z"/>
    </symbol>

    <!-- Icona: alert -->
    <symbol id="comorg-icon-alert" viewBox="0 0 20 20">
        <path fill="currentColor" d="M10 2L1 18h18L10 2zm1 13H9v-2h2v2zm0-4H9V7h2v4z"/>
    </symbol>

    <!-- Icona: user -->
    <symbol id="comorg-icon-user" viewBox="0 0 20 20">
        <path fill="currentColor" d="M10 10a4 4 0 100-8 4 4 0 000 8zm0 2c-3.3 0-6 1.7-6 4v2h12v-2c0-2.3-2.7-4-6-4z"/>
    </symbol>

    <!-- Icona: group -->
    <symbol id="comorg-icon-group" viewBox="0 0 20 20">
        <path fill="currentColor" d="M7 10a3 3 0 110-6 3 3 0 010 6zm6 0a3 3 0 110-6 3 3 0 010 6zM7 12c-2.7 0-5 1.3-5 3v2h6v-2c0-.7.2-1.3.6-1.8C8.1 12.5 7.6 12 7 12zm6 0c-.6 0-1.1.5-1.6 1.2.4.5.6 1.1.6 1.8v2h6v-2c0-1.7-2.3-3-5-3z"/>
    </symbol>

</svg>
